<svg id="Capa_1" enable-background="new 0 0 512 512" height="512" viewBox="0 0 512 512" width="512" xmlns="http://www.w3.org/2000/svg"><g><g><path d="m425 444.5-338 30v-437c0-16.569 13.431-30 30-30h303c2.761 0 5 2.239 5 5z" fill="#ade499"/><path d="m420 7.5h-30c2.761 0 5 2.239 5 5v432h30v-432c0-2.761-2.239-5-5-5z" fill="#87d8a2"/><path d="m117 504.5h303c2.761 0 5-2.239 5-5v-55h-308c-16.569 0-30 13.431-30 30 0 16.569 13.431 30 30 30z" fill="#e9f5ff"/><path d="m395 444.5v55c0 2.761-2.239 5-5 5h30c2.761 0 5-2.239 5-5v-55z" fill="#d7ebfd"/><g><g><path d="m185.282 281.47h-13.166c-4.04 0-7.315-3.275-7.315-7.315v-40.961h27.795v40.961c.001 4.04-3.274 7.315-7.314 7.315z" fill="#3c6d91"/><path d="m339.884 281.47h-13.166c-4.04 0-7.315-3.275-7.315-7.315v-40.961h27.795v40.961c.001 4.04-3.274 7.315-7.314 7.315z" fill="#3c6d91"/><g><path d="m347.199 162.941h-182.398l25.497-60.84c2.278-5.437 7.597-8.975 13.492-8.975h104.419c5.895 0 11.214 3.538 13.492 8.975z" fill="#e9f5ff"/><path d="m321.702 102.102c-2.279-5.437-7.597-8.975-13.492-8.975h-36.193c5.895 0 11.214 3.538 13.492 8.975l25.497 60.84h36.193z" fill="#d7ebfd"/><path d="m347.199 170.441h-182.398c-2.51 0-4.854-1.256-6.245-3.346s-1.643-4.737-.672-7.053l25.497-60.839c3.456-8.247 11.467-13.576 20.409-13.576h104.419c8.942 0 16.953 5.329 20.409 13.576l25.497 60.839c.97 2.315.718 4.962-.672 7.053-1.39 2.09-3.734 3.346-6.244 3.346zm-171.122-15h159.847l-21.139-50.44c-1.114-2.657-3.694-4.374-6.575-4.374h-104.419c-2.881 0-5.461 1.717-6.575 4.374z" fill="#b1d8fc"/></g><path d="m164.801 245.716h182.397c8.079 0 14.629-6.55 14.629-14.629v-52.568c0-15.404-12.488-27.892-27.892-27.892h-155.871c-15.404 0-27.892 12.488-27.892 27.892v52.568c0 8.079 6.55 14.629 14.629 14.629z" fill="#b1d8fc"/><path d="m333.936 150.627h-30c15.404 0 27.892 12.488 27.892 27.892v52.568c0 8.079-6.55 14.629-14.629 14.629h30c8.079 0 14.629-6.55 14.629-14.629v-52.568c0-15.404-12.488-27.892-27.892-27.892z" fill="#88c7fc"/></g><circle cx="316.828" cy="198" fill="#fddf7a" r="15"/><path d="m316.828 183c-2.735 0-5.292.744-7.5 2.023 4.479 2.595 7.5 7.428 7.5 12.977s-3.021 10.382-7.5 12.977c2.208 1.279 4.765 2.023 7.5 2.023 8.284 0 15-6.716 15-15s-6.716-15-15-15z" fill="#f9d069"/><circle cx="195.172" cy="198" fill="#fddf7a" r="15"/><path d="m195.172 183c-2.735 0-5.292.744-7.5 2.023 4.479 2.595 7.5 7.428 7.5 12.977s-3.021 10.382-7.5 12.977c2.208 1.279 4.765 2.023 7.5 2.023 8.284 0 15-6.716 15-15s-6.715-15-15-15z" fill="#f9d069"/></g></g><path d="m180.172 365.102c-4.142 0-7.5 3.358-7.5 7.5s3.358 7.5 7.5 7.5h151.655c4.142 0 7.5-3.358 7.5-7.5s-3.358-7.5-7.5-7.5zm57.682-174.602c-4.142 0-7.5 3.358-7.5 7.5s3.358 7.5 7.5 7.5h36.291c4.142 0 7.5-3.358 7.5-7.5s-3.358-7.5-7.5-7.5zm-87.682 159.602h211.655c4.142 0 7.5-3.358 7.5-7.5s-3.358-7.5-7.5-7.5h-211.655c-4.142 0-7.5 3.358-7.5 7.5s3.358 7.5 7.5 7.5zm269.828-350.102h-303c-20.678 0-37.5 16.822-37.5 37.5v313.542c0 4.142 3.358 7.5 7.5 7.5s7.5-3.358 7.5-7.5v-313.542c0-12.407 10.093-22.5 22.5-22.5h300.5v422h-300.5c-8.436 0-16.228 2.801-22.5 7.52v-58.478c0-4.142-3.358-7.5-7.5-7.5s-7.5 3.358-7.5 7.5v88.458c0 20.678 16.822 37.5 37.5 37.5h303c6.893 0 12.5-5.607 12.5-12.5v-487c0-6.893-5.607-12.5-12.5-12.5zm-2.5 497h-300.5c-12.407 0-22.5-10.093-22.5-22.5s10.093-22.5 22.5-22.5h300.5zm-100.672-276.5c12.407 0 22.5-10.093 22.5-22.5s-10.093-22.5-22.5-22.5-22.5 10.093-22.5 22.5 10.093 22.5 22.5 22.5zm0-30c4.136 0 7.5 3.364 7.5 7.5s-3.364 7.5-7.5 7.5-7.5-3.364-7.5-7.5 3.364-7.5 7.5-7.5zm9.892 98.47h13.16c8.172 0 14.82-6.644 14.82-14.81v-22.256c8.521-3.08 14.627-11.248 14.627-20.818v-52.568c0-14.397-8.646-26.805-21.014-32.328l-19.698-46.995c-3.461-8.241-11.47-13.566-20.405-13.566h-104.42c-8.935 0-16.944 5.325-20.407 13.571l-19.696 46.99c-12.368 5.523-21.014 17.931-21.014 32.328v52.568c0 9.57 6.107 17.738 14.627 20.818v22.256c0 8.167 6.648 14.81 14.82 14.81h13.16c8.172 0 14.82-6.644 14.82-14.81v-20.944h66.746c4.142 0 7.5-3.358 7.5-7.5s-3.358-7.5-7.5-7.5h-102.045c-3.931 0-7.129-3.198-7.129-7.129v-52.568c0-11.244 9.148-20.392 20.392-20.392h155.871c11.244 0 20.392 9.148 20.392 20.392v52.568c0 3.931-3.198 7.129-7.129 7.129h-45.353c-4.142 0-7.5 3.358-7.5 7.5s3.358 7.5 7.5 7.5h10.055v20.944c0 8.167 6.648 14.81 14.82 14.81zm-154.42-35.754h12.8v20.754h-12.8zm8.935-110.089 15.979-38.123c1.116-2.657 3.697-4.374 6.575-4.374h104.42c2.878 0 5.459 1.717 6.573 4.37l15.981 38.127zm145.665 110.089h12.8v20.754h-12.8zm-154.228-55.216c0 12.407 10.093 22.5 22.5 22.5s22.5-10.093 22.5-22.5-10.093-22.5-22.5-22.5-22.5 10.093-22.5 22.5zm30 0c0 4.136-3.364 7.5-7.5 7.5s-7.5-3.364-7.5-7.5 3.364-7.5 7.5-7.5 7.5 3.364 7.5 7.5z"/></g></svg>